<svg width="115" height="150" viewBox="0 0 115 150" fill="none" xmlns="http://www.w3.org/2000/svg">
<path d="M69.5056 41.003C86.0481 32.0611 99.4983 40.2578 104.156 45.474C101.734 71.7409 97.1143 125.393 98.0085 129.864C98.9027 134.334 92.4198 137.688 89.0666 138.805C48.269 151.659 28.1491 141.6 20.3249 136.011C12.5008 130.422 7.47092 51.6216 10.2653 43.7974C13.0596 35.9733 29.2669 38.7676 33.179 38.7676C37.0911 38.7676 48.8273 52.1804 69.5056 41.003Z" fill="#FFC870" stroke="black"/>
<path d="M16.6146 114.617L3.25621 12.2564C2.25465 4.5822 3.96653 3 12.3869 3H102.034C110.454 3 112.166 4.5822 111.165 12.2564L97.8064 114.617C95.9875 128.551 95.0784 135.517 89.8525 139.706C79.0321 148.38 34.9174 148.002 24.5679 139.706C19.3422 135.517 18.433 128.551 16.6146 114.617Z" stroke="#606060" stroke-width="6" stroke-linecap="round" stroke-linejoin="round"/>
<path d="M8.58887 45.9399C10.144 43.3319 15.2759 38.1157 26.4727 38.1157C40.4688 38.1157 36.7753 45.9399 46.1064 45.9399C55.437 45.9399 69.4326 38.1157 83.4289 38.1157C97.4253 38.1157 106.95 45.9399 106.95 45.9399" stroke="#606060" stroke-width="6" stroke-linecap="round"/>
<path d="M39.6051 65.1769C39.2188 65.5716 39.2218 66.2124 39.6721 66.5321C40.6219 67.2065 41.7447 67.6108 42.9197 67.6908C44.4293 67.7935 45.926 67.3542 47.1406 66.452C48.3552 65.5497 49.2081 64.2436 49.5457 62.7687C49.8833 61.2938 49.6836 59.7468 48.9824 58.4059C48.2813 57.0651 47.1247 56.0185 45.7207 55.4543C44.3168 54.8901 42.7576 54.8454 41.3236 55.3281C39.8896 55.8109 38.6749 56.7895 37.898 58.0879C37.2934 59.0986 36.9848 60.2513 36.9968 61.4162C37.0025 61.9684 37.527 62.3365 38.0716 62.2443L39.2324 62.0478C39.7769 61.9557 40.1272 61.4314 40.2081 60.8851C40.2687 60.4761 40.409 60.0796 40.6246 59.7193C41.0131 59.0701 41.6204 58.5808 42.3374 58.3394C43.0544 58.098 43.834 58.1204 44.536 58.4025C45.2379 58.6846 45.8162 59.2079 46.1668 59.8783C46.5174 60.5487 46.6172 61.3222 46.4484 62.0597C46.2796 62.7972 45.8532 63.4502 45.2459 63.9013C44.6386 64.3525 43.8902 64.5721 43.1354 64.5207C42.7165 64.4922 42.3109 64.3813 41.9404 64.1977C41.4455 63.9525 40.8152 63.941 40.4288 64.3357L39.6051 65.1769Z" fill="#FFD375"/>
</svg>
